<?xml version="1.0" encoding="utf-8"?>
<!-- Generator: Adobe Illustrator 22.1.0, SVG Export Plug-In . SVG Version: 6.00 Build 0)  -->
<svg version="1.1" id="Capa_1" focusable="false" xmlns="http://www.w3.org/2000/svg" xmlns:xlink="http://www.w3.org/1999/xlink"
	 x="0px" y="0px" viewBox="0 0 448 512" style="enable-background:new 0 0 448 512;" xml:space="preserve">
<path d="M16,108.3h416c8.8,0,16-4.6,16-10.2V72.5c0-5.6-7.2-10.2-16-10.2H16c-8.8,0-16,4.6-16,10.2v25.6C0,103.7,7.2,108.3,16,108.3
	z"/>
<path d="M16,241.5h416c8.8,0,16-4.6,16-10.2v-25.6c0-5.6-7.2-10.2-16-10.2H16c-8.8,0-16,4.6-16,10.2v25.6
	C0,236.9,7.2,241.5,16,241.5z"/>
<path d="M16,374.7h416c8.8,0,16-4.6,16-10.2v-25.6c0-5.6-7.2-10.2-16-10.2H16c-8.8,0-16,4.6-16,10.2v25.6
	C0,370.1,7.2,374.7,16,374.7z"/>
</svg>
