<?xml version="1.0" encoding="utf-8"?>
<!-- Generator: Adobe Illustrator 22.1.0, SVG Export Plug-In . SVG Version: 6.00 Build 0)  -->
<svg version="1.1" id="Capa_1" focusable="false" xmlns="http://www.w3.org/2000/svg" xmlns:xlink="http://www.w3.org/1999/xlink"
	 x="0px" y="0px" viewBox="0 0 352 512" style="enable-background:new 0 0 352 512;" xml:space="preserve">
<path d="M99,357.6l216.4-216.4c4.6-4.6,5.5-11.2,2-14.7l-15.9-15.9c-3.5-3.5-10.1-2.6-14.7,2L70.4,329c-4.6,4.6-5.5,11.2-2,14.7
	l15.9,15.9C87.8,363.1,94.4,362.2,99,357.6z"/>
<path d="M315.3,329L99,112.7c-4.6-4.6-11.2-5.5-14.7-2l-15.9,15.9c-3.5,3.5-2.6,10.1,2,14.7l216.4,216.4c4.6,4.6,11.2,5.5,14.7,2
	l15.9-15.9C320.8,340.2,319.9,333.6,315.3,329z"/>
</svg>
